<svg width="983" height="175" viewBox="0 0 983 175" fill="none" xmlns="http://www.w3.org/2000/svg">
<g clip-path="url(#clip0)">
<path d="M579.92 69.3371C567.056 60.5894 555.564 63.6769 543.9 68.308C521.774 76.7126 504.279 90.4345 492.615 111.017C489.013 117.364 486.783 125.082 485.754 132.458C483.524 147.552 490.385 156.471 505.136 160.244C519.373 164.018 533.609 162.474 547.674 159.215C556.593 157.157 565.169 153.555 573.574 149.782C577.691 147.895 581.121 144.464 584.037 140.862C585.752 138.976 586.953 135.202 586.267 133.144C585.581 131.257 581.807 130.228 579.234 129.542C575.289 128.341 570.83 128.513 567.056 126.969C563.111 125.254 559.852 121.995 555.564 118.736C564.826 110.331 574.26 110.674 582.322 115.134C592.27 120.623 602.39 120.451 612.853 119.937C620.4 119.593 627.947 118.393 635.494 118.564C649.216 118.736 662.938 119.079 676.66 119.937C683.863 120.451 691.41 128.684 692.611 136.06C693.126 139.319 692.954 142.749 693.126 147.38C706.676 148.752 717.311 143.607 726.573 134.344C729.66 131.257 734.291 126.111 737.036 126.797C746.126 128.856 756.932 123.367 764.308 132.801C764.823 133.315 764.651 134.344 764.822 135.031C759.162 136.574 751.958 136.746 748.013 140.348C744.24 143.778 744.068 150.982 742.01 156.471C740.981 159.215 739.609 161.617 738.408 164.018C728.46 164.361 728.116 156.642 726.23 149.782C712.336 156.299 698.443 158.186 683.864 157.329C680.433 157.157 676.831 159.387 673.058 160.416C667.054 161.96 661.051 164.533 654.876 164.876C641.497 165.39 634.808 155.956 638.753 143.264C640.297 138.633 642.698 134.173 645.614 127.655C630.177 128.513 616.283 129.199 601.361 129.885C598.102 153.212 580.092 161.788 560.538 167.105C543.214 171.908 525.204 175.682 507.023 169.85C500.334 167.62 493.644 164.704 487.812 160.759C478.893 154.756 474.262 146.008 474.434 135.031C474.605 121.995 478.036 109.817 485.583 99.5252C501.877 77.3987 523.318 62.4762 550.075 55.7868C556.079 54.2431 562.597 54.2431 568.771 54.7576C577.176 55.2722 579.406 58.7027 579.92 69.3371ZM647.844 154.413C656.42 156.471 661.908 154.07 668.769 149.782C663.967 145.322 660.193 141.548 654.361 136.06C651.789 143.435 650.073 148.581 647.844 154.413ZM677.174 145.15C682.148 138.976 681.291 134.173 675.287 128.341C672.371 131.086 667.912 133.315 667.397 136.403C666.368 141.891 671.857 143.435 677.174 145.15Z" fill="#1D1D1B" stroke="#1D1D1B" stroke-width="3" stroke-miterlimit="10"/>
<path d="M949.896 145.665C955.728 142.063 959.844 139.319 964.304 137.089C971.68 133.315 976.311 135.202 978.712 143.264C981.113 151.497 981.113 159.73 978.883 168.135C970.65 166.248 970.65 166.248 968.078 152.354C962.417 151.668 959.33 156.299 955.042 158.358C951.268 160.244 947.838 162.817 943.893 164.19C936.86 166.591 930.171 160.416 932.058 153.212C932.915 149.953 934.459 147.037 935.66 143.95C931.2 139.833 928.284 143.95 925.197 145.322C913.19 150.468 901.526 156.128 889.52 160.931C886.261 162.303 881.973 162.646 878.371 162.131C868.251 160.244 863.448 151.154 867.05 141.205C868.251 137.775 869.795 134.344 871.51 129.885C850.756 130.914 831.03 131.943 810.619 132.801C811.82 137.089 813.192 141.034 813.878 144.979C815.079 151.497 814.05 157.843 808.561 162.131C802.901 166.419 796.726 165.562 790.722 162.817C778.716 157.329 774.599 149.953 779.573 137.603C784.033 126.283 790.379 115.82 796.554 105.357C803.072 94.551 810.276 84.0881 817.137 73.6252C817.995 72.253 818.681 69.8517 819.881 69.5086C822.797 68.651 826.056 68.1365 828.801 68.9941C829.83 69.3371 830.687 74.4828 829.658 76.3696C825.37 84.0881 820.224 91.2921 815.422 98.6676C811.134 105.357 806.846 111.875 801.7 119.765C805.988 120.966 808.732 122.338 811.305 122.166C834.804 120.966 858.303 119.593 881.801 117.878C885.746 117.535 889.691 115.305 893.636 113.762C896.724 112.733 899.983 110.674 903.07 110.846C905.815 111.017 908.559 113.419 911.132 114.791C909.76 117.192 908.902 120.28 906.844 121.823C900.326 126.454 893.122 129.885 886.947 134.859C882.83 138.118 879.915 142.921 876.484 147.037C879.743 152.697 883.516 151.325 886.947 149.953C895.866 146.18 904.614 142.235 913.533 138.289C921.252 134.859 928.627 130.914 936.517 127.827C948.524 123.195 952.64 126.797 950.411 139.833C950.239 140.519 950.239 141.72 949.896 145.665ZM793.638 133.83C791.923 138.118 789.693 142.063 788.664 146.18C787.635 150.468 790.036 153.727 794.667 153.898C798.956 154.07 801.871 151.668 801.871 147.037C802.214 141.72 800.328 137.26 793.638 133.83Z" fill="#1D1D1B" stroke="#1D1D1B" stroke-width="3" stroke-miterlimit="10"/>
<path d="M164.491 127.14C165.863 126.454 167.407 125.94 168.436 125.082C175.983 118.736 184.731 114.791 194.164 112.218C203.255 109.817 210.459 112.561 215.948 120.794C216.462 121.652 217.32 122.509 218.692 124.225C223.666 119.079 228.298 114.276 232.929 109.474C251.968 89.9199 271.007 70.3663 289.874 50.8126C296.392 44.1232 302.567 37.0907 309.085 30.5728C310.457 29.2007 312.859 28 314.917 28C320.577 28 322.121 32.8027 324.007 36.9192C325.723 40.6927 326.752 44.6378 322.807 47.7252C309.256 59.2172 298.622 73.2822 288.159 87.3471C279.24 99.5252 271.693 112.561 267.062 126.969C266.033 130.228 265.69 133.83 264.832 138.289C267.233 137.775 268.262 137.946 269.12 137.432C281.47 129.885 293.991 122.509 306.169 114.791C310.114 112.218 313.545 108.787 317.147 105.529C321.435 101.755 324.351 101.412 329.325 104.499C336.872 109.302 336.872 118.393 330.868 125.254C325.551 131.429 321.263 138.461 317.833 145.837C314.231 153.384 312.172 161.788 309.257 169.85C308.227 172.766 307.027 176.711 303.425 176.025C300.852 175.682 297.936 173.109 296.392 170.707C292.962 165.562 291.761 159.901 295.192 153.898C296.907 150.811 297.936 147.209 299.994 142.235C296.735 143.607 294.677 144.121 293.133 145.15C285.758 149.953 278.554 155.099 271.35 160.073C264.489 164.876 261.402 164.704 256.084 158.358C251.11 152.526 248.537 145.665 249.223 137.946C249.566 133.487 250.596 129.027 251.282 124.568C251.625 122.166 252.139 119.765 251.11 116.506C247.165 120.794 243.048 124.911 239.103 129.199C229.155 140.176 218.006 149.782 210.288 162.646C207.2 167.791 202.569 167.963 198.452 163.332C196.566 161.274 194.85 158.872 193.478 156.471C191.248 153.04 191.077 149.953 193.65 146.18C196.737 141.548 199.139 136.574 199.482 129.027C193.478 131.943 187.99 133.658 183.53 136.746C173.582 143.778 163.976 151.154 157.115 161.617C153.342 167.448 149.397 167.963 144.423 163.16C138.762 157.843 133.617 152.011 136.018 143.092C136.189 142.406 135.503 141.548 134.989 140.176C131.044 141.891 126.927 143.092 123.325 145.15C112.176 151.325 99.4835 153.898 88.6775 161.445C81.8166 166.248 76.8424 164.533 71.8683 157.672C69.9815 155.27 68.6093 152.526 66.551 149.267C70.153 147.209 73.0689 145.322 75.9848 143.95C86.1047 138.976 87.9914 126.626 80.1014 118.564C76.6709 115.134 74.0981 110.846 70.6676 106.386C73.2404 103.985 74.7842 101.584 77.014 100.726C91.9365 95.0656 98.6259 83.402 101.713 67.9649C97.7683 68.651 95.8815 71.7384 93.8232 73.9682C78.2146 91.1206 65.1788 109.474 52.4861 127.827C42.1947 142.578 32.5894 157.5 25.2139 173.966C22.6411 179.97 20.2397 185.801 20.2397 192.662C20.2397 201.067 15.9517 203.297 8.57615 199.352C0.686083 195.064 -0.686103 190.433 2.40132 181.685C9.94834 160.416 20.5828 140.862 34.1331 122.681C48.0265 103.985 61.7484 85.2888 75.9848 66.9358C81.9881 59.0457 89.0206 52.0133 95.71 44.6378C101.885 37.7768 111.49 37.9484 116.807 45.4954C119.037 48.7543 120.752 53.2139 120.752 57.3305C121.267 70.0232 118.523 82.2014 112.519 93.5219C109.775 98.6676 105.487 103.127 101.542 107.415C99.4835 109.645 96.5676 111.017 94.3378 112.561C97.4252 119.936 99.9981 126.111 102.914 132.972C104.115 132.801 105.83 133.144 107.202 132.458C117.836 127.14 128.642 121.995 139.105 116.163C142.536 114.276 145.452 110.674 147.853 107.415C151.97 102.098 157.458 101.412 164.148 106.043C168.95 109.474 170.494 116.335 167.407 120.966C166.206 122.681 164.834 124.396 163.633 126.111C163.976 126.454 164.148 126.797 164.491 127.14Z" fill="#1D1D1B" stroke="#1D1D1B" stroke-miterlimit="10"/>
<path d="M372.205 123.538C377.18 119.593 381.811 115.991 386.613 112.389C395.018 105.872 402.051 107.758 405.996 117.535C407.025 120.108 407.711 123.024 408.054 125.768C408.911 133.658 409.598 141.548 410.455 149.438C410.627 150.639 411.313 151.84 410.798 152.697C409.941 154.584 409.083 156.814 407.539 157.843C406.853 158.358 403.937 156.642 403.08 155.099C400.678 151.325 398.62 147.209 396.905 143.092C395.19 138.976 393.989 134.516 392.445 129.885C390.73 130.571 389.015 130.914 387.643 131.772C376.151 140.176 365.688 149.782 357.454 161.445C351.794 169.507 346.134 168.992 341.331 160.416C337.215 153.04 337.729 149.953 342.875 143.607C347.506 137.946 352.137 132.286 356.425 126.454C362.086 118.907 363.286 118.564 372.205 123.538Z" fill="#1D1D1B" stroke="#1D1D1B" stroke-miterlimit="10"/>
<path d="M370.319 80.4861C369.29 81.5153 367.574 84.0881 365.173 85.2888C362.257 86.661 358.998 85.8033 357.455 82.3729C355.911 78.9424 354.024 75.3404 352.995 71.7384C352.48 70.0232 353.51 67.4504 354.71 66.0782C356.425 64.1914 358.998 64.0199 361.571 65.5636C366.888 68.4795 371.005 74.1398 370.319 80.4861Z" fill="#1D1D1B" stroke="#1D1D1B" stroke-miterlimit="10"/>
<path d="M673.401 77.7418C672.371 78.7709 670.656 81.3437 668.255 82.5444C665.339 83.9166 662.08 83.059 660.536 79.6285C658.993 76.198 657.106 72.5961 656.077 68.9941C655.562 67.2788 656.591 64.706 657.792 63.3338C659.507 61.447 662.08 61.2755 664.653 62.8192C670.142 65.7351 674.087 71.3954 673.401 77.7418Z" fill="#1D1D1B" stroke="#1D1D1B" stroke-miterlimit="10"/>
<path d="M719.712 82.3729C718.683 83.402 716.967 85.9749 714.566 87.1755C711.65 88.5477 708.391 87.6901 706.848 84.2596C705.304 80.8292 703.417 77.2272 702.388 73.6252C701.873 71.91 702.903 69.3371 704.103 67.9649C705.818 66.0782 708.391 65.9067 710.964 67.4504C716.281 70.1947 720.398 76.0265 719.712 82.3729Z" fill="#1D1D1B" stroke="#1D1D1B" stroke-miterlimit="10"/>
</g>
<defs>
<clipPath id="clip0">
<rect width="983" height="174.954" fill="white"/>
</clipPath>
</defs>
</svg>
